# Blender 4.4.3
# www.blender.org
mtllib Cop_FrontLeftWheel.mtl
o Cop_FrontLeftWheel
v -0.087708 -0.000000 -0.275285
v 0.057159 0.000000 -0.275285
v -0.087708 -0.137643 -0.238404
v 0.057159 -0.137643 -0.238404
v -0.087708 -0.238404 -0.137643
v 0.057159 -0.238404 -0.137643
v -0.087708 -0.275285 0.000000
v 0.057159 -0.275285 0.000000
v -0.087708 -0.238404 0.137643
v 0.057159 -0.238404 0.137643
v -0.087708 -0.137643 0.238404
v 0.057159 -0.137643 0.238404
v -0.087708 -0.000000 0.275285
v 0.057159 -0.000000 0.275285
v -0.087708 0.137643 0.238404
v 0.057159 0.137643 0.238404
v -0.087709 0.238404 0.137643
v 0.057159 0.238404 0.137643
v -0.087709 0.275285 0.000000
v 0.057159 0.275285 0.000000
v -0.087709 0.238404 -0.137642
v 0.057159 0.238404 -0.137642
v -0.087708 0.137643 -0.238404
v 0.057159 0.137643 -0.238404
v 0.087708 -0.104217 -0.180510
v 0.087708 0.000000 -0.208435
v 0.087708 -0.180510 -0.104217
v 0.087708 -0.208434 0.000000
v 0.087708 -0.180510 0.104217
v 0.087708 -0.104217 0.180510
v 0.087708 -0.000000 0.208434
v 0.087708 0.104217 0.180510
v 0.087708 0.180510 0.104217
v 0.087708 0.208435 0.000000
v 0.087708 0.180510 -0.104217
v 0.087708 0.104217 -0.180510
v 0.087708 -0.090985 -0.157591
v 0.087708 0.000000 -0.181971
v 0.087708 -0.157591 -0.090985
v 0.087708 -0.181971 0.000000
v 0.087708 -0.157591 0.090985
v 0.087708 -0.090985 0.157591
v 0.087708 -0.000000 0.181971
v 0.087708 0.090985 0.157591
v 0.087708 0.157591 0.090985
v 0.087708 0.181971 0.000000
v 0.087708 0.157591 -0.090985
v 0.087708 0.090985 -0.157591
v 0.062852 -0.090985 -0.157591
v 0.062852 0.000000 -0.181971
v 0.062852 -0.157591 -0.090985
v 0.062852 -0.181971 0.000000
v 0.062852 -0.157591 0.090985
v 0.062852 -0.090985 0.157591
v 0.062852 -0.000000 0.181971
v 0.062852 0.090985 0.157591
v 0.062852 0.157591 0.090985
v 0.062852 0.181971 0.000000
v 0.062852 0.157591 -0.090985
v 0.062852 0.090985 -0.157591
v 0.065696 -0.025493 -0.044155
v 0.065696 0.000000 -0.050986
v 0.065696 -0.044155 -0.025493
v 0.065696 -0.050986 0.000000
v 0.065696 -0.044155 0.025493
v 0.065696 -0.025493 0.044155
v 0.065696 0.000000 0.050986
v 0.065696 0.025493 0.044155
v 0.065696 0.044155 0.025493
v 0.065696 0.050986 0.000000
v 0.065696 0.044155 -0.025493
v 0.065696 0.025493 -0.044155
v 0.074451 -0.015894 -0.027529
v 0.074451 0.000000 -0.031788
v 0.074451 -0.027529 -0.015894
v 0.074451 -0.031788 0.000000
v 0.074451 -0.027529 0.015894
v 0.074451 -0.015894 0.027529
v 0.074451 0.000000 0.031788
v 0.074451 0.015894 0.027529
v 0.074451 0.027529 0.015894
v 0.074451 0.031788 0.000000
v 0.074451 0.027529 -0.015894
v 0.074451 0.015894 -0.027529
v 0.062852 -0.009099 0.169955
v 0.062852 -0.081887 0.150452
v 0.062197 -0.006989 0.062595
v 0.062197 -0.028923 0.056718
v 0.062852 0.081887 0.150452
v 0.062852 0.009099 0.169955
v 0.062197 0.028923 0.056718
v 0.062197 0.006990 0.062595
v 0.062852 0.145401 0.092116
v 0.062852 0.092116 0.145401
v 0.062197 0.052838 0.036781
v 0.062197 0.036781 0.052838
v 0.062852 0.169955 0.009099
v 0.062852 0.150452 0.081887
v 0.062197 0.062595 0.006990
v 0.062197 0.056718 0.028923
v 0.062852 0.092116 -0.145401
v 0.062852 0.145401 -0.092116
v 0.062197 0.036781 -0.052838
v 0.062197 0.052838 -0.036781
v 0.062852 0.150452 -0.081887
v 0.062852 0.169955 -0.009098
v 0.062197 0.056718 -0.028923
v 0.062197 0.062595 -0.006989
v 0.062852 0.009099 -0.169955
v 0.062852 0.081887 -0.150452
v 0.062197 0.006990 -0.062595
v 0.062197 0.028923 -0.056718
v 0.062852 -0.081887 -0.150452
v 0.062852 -0.009098 -0.169955
v 0.062197 -0.028923 -0.056718
v 0.062197 -0.006989 -0.062595
v 0.062852 -0.145401 -0.092116
v 0.062852 -0.092116 -0.145401
v 0.062197 -0.052838 -0.036781
v 0.062197 -0.036781 -0.052838
v 0.062852 -0.169955 -0.009099
v 0.062852 -0.150452 -0.081887
v 0.062197 -0.062595 -0.006989
v 0.062197 -0.056718 -0.028923
v 0.062852 -0.150452 0.081887
v 0.062852 -0.169955 0.009099
v 0.062197 -0.056718 0.028923
v 0.062197 -0.062595 0.006990
v 0.062852 -0.092116 0.145401
v 0.062852 -0.145401 0.092116
v 0.062197 -0.036781 0.052838
v 0.062197 -0.052838 0.036781
v 0.019744 -0.009099 0.169955
v 0.019744 -0.081887 0.150452
v 0.029081 -0.006989 0.062595
v 0.029081 -0.028923 0.056718
v 0.019744 0.081887 0.150452
v 0.019744 0.009099 0.169955
v 0.029081 0.028923 0.056718
v 0.029081 0.006990 0.062595
v 0.019744 0.145401 0.092116
v 0.019744 0.092116 0.145401
v 0.029081 0.052838 0.036781
v 0.029081 0.036781 0.052838
v 0.019744 0.169955 0.009099
v 0.019744 0.150452 0.081887
v 0.029081 0.062595 0.006990
v 0.029081 0.056718 0.028923
v 0.019744 0.092116 -0.145401
v 0.019744 0.145401 -0.092116
v 0.029081 0.036781 -0.052838
v 0.029081 0.052838 -0.036781
v 0.019744 0.150452 -0.081887
v 0.019744 0.169955 -0.009098
v 0.029081 0.056718 -0.028923
v 0.029081 0.062595 -0.006989
v 0.019744 0.009099 -0.169955
v 0.019744 0.081887 -0.150452
v 0.029081 0.006990 -0.062595
v 0.029081 0.028923 -0.056718
v 0.019744 -0.081887 -0.150452
v 0.019744 -0.009099 -0.169955
v 0.029081 -0.028923 -0.056718
v 0.029081 -0.006989 -0.062595
v 0.019744 -0.145401 -0.092116
v 0.019744 -0.092116 -0.145401
v 0.029081 -0.052838 -0.036781
v 0.029081 -0.036781 -0.052838
v 0.019744 -0.169955 -0.009099
v 0.019744 -0.150452 -0.081887
v 0.029081 -0.062595 -0.006989
v 0.029081 -0.056718 -0.028923
v 0.019744 -0.150452 0.081887
v 0.019744 -0.169955 0.009099
v 0.029081 -0.056718 0.028923
v 0.029081 -0.062595 0.006990
v 0.019744 -0.092116 0.145401
v 0.019744 -0.145401 0.092116
v 0.029081 -0.036781 0.052838
v 0.029081 -0.052838 0.036781
v 0.067447 -0.027306 0.038503
v 0.067447 -0.038503 0.027306
v 0.072700 -0.021546 0.028527
v 0.072700 -0.028527 0.021546
v 0.067447 -0.038503 -0.027306
v 0.067447 -0.027306 -0.038503
v 0.072700 -0.028527 -0.021546
v 0.072700 -0.021546 -0.028527
v 0.067447 0.027306 -0.038503
v 0.067447 0.038503 -0.027306
v 0.072700 0.021546 -0.028527
v 0.072700 0.028527 -0.021546
v 0.067447 0.038503 0.027306
v 0.067447 0.027306 0.038503
v 0.072700 0.028527 0.021546
v 0.072700 0.021546 0.028527
v 0.049446 -0.027306 0.038503
v 0.049446 -0.038503 0.027306
v 0.054699 -0.021546 0.028527
v 0.054699 -0.028527 0.021546
v 0.049446 -0.038503 -0.027306
v 0.049446 -0.027306 -0.038503
v 0.054699 -0.028527 -0.021546
v 0.054699 -0.021546 -0.028527
v 0.049446 0.027306 -0.038503
v 0.049446 0.038503 -0.027306
v 0.054699 0.021546 -0.028527
v 0.054699 0.028527 -0.021546
v 0.049446 0.038503 0.027306
v 0.049446 0.027306 0.038503
v 0.054699 0.028527 0.021546
v 0.054699 0.021546 0.028527
vn -0.0000 -0.2588 -0.9659
vn -0.0000 -0.7071 -0.7071
vn -0.0000 -0.9659 -0.2588
vn -0.0000 -0.9659 0.2588
vn -0.0000 -0.7071 0.7071
vn -0.0000 -0.2588 0.9659
vn -0.0000 0.2588 0.9659
vn -0.0000 0.7071 0.7071
vn -0.0000 0.9659 0.2588
vn -0.0000 0.9659 -0.2588
vn 0.9039 -0.1107 0.4131
vn -0.0000 0.7071 -0.7071
vn -0.0000 0.2588 -0.9659
vn -1.0000 -0.0000 -0.0000
vn 1.0000 -0.0000 -0.0000
vn 0.9039 -0.3024 0.3024
vn 0.9039 -0.4131 0.1107
vn 0.9039 0.1107 -0.4131
vn 0.9039 -0.1107 -0.4131
vn 0.9039 -0.4131 -0.1107
vn 0.9039 0.3024 -0.3024
vn 0.9039 -0.3024 -0.3024
vn 0.9039 0.4131 -0.1107
vn 0.9039 0.4131 0.1107
vn 0.9039 0.3024 0.3024
vn 0.9039 0.1107 0.4131
vn 0.9635 0.1278 -0.2354
vn 0.9043 0.1105 -0.4124
vn 0.9094 0.2137 -0.3569
vn 0.9657 -0.2507 -0.0672
vn 0.9094 0.2137 0.3569
vn 0.9657 0.0672 0.2506
vn 0.9771 -0.0071 0.2127
vn 0.9706 0.1701 -0.1701
vn 0.9657 -0.0672 -0.2506
vn 0.9635 -0.1278 0.2354
vn 0.9706 -0.1701 0.1701
vn 0.9657 0.0672 -0.2506
vn 0.9098 -0.2196 -0.3523
vn 0.9043 0.4124 0.1105
vn 0.9043 -0.1105 0.4124
vn 0.9043 -0.4124 -0.1105
vn 0.9043 0.4124 -0.1105
vn 0.9043 0.1105 0.4124
vn 0.9043 -0.4124 0.1105
vn 0.9098 0.2196 -0.3523
vn 0.9043 -0.1105 -0.4124
vn 0.9098 0.2196 0.3523
vn 0.8404 -0.3833 0.3833
vn 0.9771 -0.2127 0.0071
vn 0.9657 -0.0672 0.2506
vn 0.9094 0.3569 0.2137
vn 0.9771 0.2127 0.0071
vn 0.9094 -0.3569 0.2137
vn 0.9635 0.2354 -0.1278
vn 0.9706 0.1701 0.1701
vn -0.0000 -0.0196 0.9998
vn 0.9657 0.2506 0.0672
vn 0.9771 0.0071 0.2127
vn 0.9635 -0.1278 -0.2354
vn 0.9635 0.2354 0.1278
vn -0.0000 0.5131 -0.8583
vn 0.9771 0.0071 -0.2127
vn 0.9657 0.2506 -0.0672
vn 0.9094 -0.3569 -0.2137
vn 0.9771 0.2127 -0.0071
vn 0.9094 0.3569 -0.2137
vn 0.9771 -0.2127 -0.0071
vn -0.0000 0.4919 -0.8706
vn 0.9706 -0.1701 -0.1701
vn 0.9635 -0.2354 0.1278
vn -0.0000 -0.8583 0.5131
vn 0.9094 -0.2137 0.3569
vn 0.9771 -0.0071 -0.2127
vn 0.9657 -0.2507 0.0672
vn 0.9094 -0.2137 -0.3569
vn 0.9635 -0.2354 -0.1278
vn 0.9635 0.1278 0.2354
vn 0.9960 -0.0231 0.0862
vn 0.9960 0.0231 0.0862
vn 0.9960 0.0629 0.0629
vn 0.9960 0.0862 0.0231
vn 0.9960 0.0629 -0.0629
vn 0.9960 0.0862 -0.0231
vn 0.9960 0.0231 -0.0862
vn 0.9960 -0.0231 -0.0862
vn 0.9960 -0.0629 -0.0629
vn 0.9960 -0.0862 -0.0231
vn 0.9960 -0.0862 0.0231
vn 0.9960 -0.0629 0.0629
vn -0.0000 0.0196 0.9998
vn -0.0000 -0.0196 -0.9998
vn -0.0000 0.8706 0.4919
vn -0.0000 -0.4919 -0.8706
vn -0.0000 0.4919 0.8706
vn -0.0000 -0.9998 -0.0196
vn -0.0000 0.8706 -0.4919
vn -0.0000 -0.5131 0.8583
vn -0.0000 -0.9998 0.0196
vn -0.0000 0.8583 -0.5131
vn -0.0000 -0.4919 0.8706
vn -0.0000 -0.5131 -0.8583
vn -0.0000 0.0196 -0.9998
vn -0.0000 0.8583 0.5131
vn -0.0000 -0.8583 -0.5131
vn -0.0000 -0.8706 -0.4919
vn -0.0000 0.9998 -0.0196
vn -0.0000 0.5131 0.8583
vn -0.0000 0.9998 0.0196
vn -0.0000 -0.8706 0.4919
vn 0.9098 -0.2196 0.3523
vn 0.9098 -0.3523 0.2196
vn 0.9371 -0.2468 0.2468
vn -0.0000 0.8660 -0.5000
vn 0.9371 -0.2468 -0.2468
vn 0.8404 -0.3833 -0.3833
vn 0.9098 -0.3523 -0.2196
vn -0.0000 -0.5000 -0.8660
vn 0.9371 0.2468 -0.2468
vn 0.9098 0.3523 -0.2196
vn 0.8404 0.3833 -0.3833
vn -0.0000 -0.5000 0.8660
vn 0.9371 0.2468 0.2468
vn 0.8404 0.3833 0.3833
vn 0.9098 0.3523 0.2196
vn 0.9043 -0.3019 0.3019
vn 0.9043 -0.3019 -0.3019
vn 0.9043 0.3019 -0.3019
vn 0.9043 0.3019 0.3019
vn -0.0000 -0.8660 -0.5000
vn -0.0000 -0.8660 0.5000
vn -0.0000 0.5000 0.8660
vn -0.0000 0.8660 0.5000
vn -0.0000 0.5000 -0.8660
s 0
usemtl Black
f 1//1 2//1 4//1 3//1
f 3//2 4//2 6//2 5//2
f 5//3 6//3 8//3 7//3
f 7//4 8//4 10//4 9//4
f 9//5 10//5 12//5 11//5
f 11//6 12//6 14//6 13//6
f 13//7 14//7 16//7 15//7
f 15//8 16//8 18//8 17//8
f 17//9 18//9 20//9 19//9
f 19//10 20//10 22//10 21//10
f 14//11 12//11 30//11 31//11
f 21//12 22//12 24//12 23//12
f 23//13 24//13 2//13 1//13
f 1//14 3//14 5//14 7//14 9//14 11//14 13//14 15//14 17//14 19//14 21//14 23//14
f 31//15 30//15 42//15 43//15
f 12//16 10//16 29//16 30//16
f 10//17 8//17 28//17 29//17
f 2//18 24//18 36//18 26//18
f 4//19 2//19 26//19 25//19
f 8//20 6//20 27//20 28//20
f 24//21 22//21 35//21 36//21
f 6//22 4//22 25//22 27//22
f 22//23 20//23 34//23 35//23
f 20//24 18//24 33//24 34//24
f 18//25 16//25 32//25 33//25
f 16//26 14//26 31//26 32//26
f 46//3 45//3 57//3 58//3
f 28//15 27//15 39//15 40//15
f 35//15 34//15 46//15 47//15
f 32//15 31//15 43//15 44//15
f 29//15 28//15 40//15 41//15
f 36//15 35//15 47//15 48//15
f 25//15 26//15 38//15 37//15
f 33//15 32//15 44//15 45//15
f 30//15 29//15 41//15 42//15
f 26//15 36//15 48//15 38//15
f 27//15 25//15 37//15 39//15
f 34//15 33//15 45//15 46//15
f 43//13 42//13 54//13 55//13
f 40//9 39//9 51//9 52//9
f 47//4 46//4 58//4 59//4
f 44//1 43//1 55//1 56//1
f 41//10 40//10 52//10 53//10
f 48//5 47//5 59//5 60//5
f 37//7 38//7 50//7 49//7
f 45//2 44//2 56//2 57//2
f 42//12 41//12 53//12 54//12
f 38//6 48//6 60//6 50//6
f 39//8 37//8 49//8 51//8
f 133//79 134//79 136//79 135//79
f 137//80 138//80 140//80 139//80
f 141//81 142//81 144//81 143//81
f 145//82 146//82 148//82 147//82
f 149//83 150//83 152//83 151//83
f 153//84 154//84 156//84 155//84
f 157//85 158//85 160//85 159//85
f 161//86 162//86 164//86 163//86
f 165//87 166//87 168//87 167//87
f 169//88 170//88 172//88 171//88
f 173//89 174//89 176//89 175//89
f 177//90 178//90 180//90 179//90
f 197//126 198//126 200//126 199//126
f 201//127 202//127 204//127 203//127
f 205//128 206//128 208//128 207//128
f 209//129 210//129 212//129 211//129
usemtl Grey
f 63//27 51//27 117//27 119//27
f 62//28 72//28 84//28 74//28
f 57//29 69//29 100//29 98//29
f 55//15 54//15 86//15 85//15
f 63//30 64//30 123//30 124//30
f 71//31 59//31 105//31 107//31
f 67//32 68//32 91//32 92//32
f 52//33 64//33 128//33 126//33
f 71//34 72//34 103//34 104//34
f 62//35 61//35 115//35 116//35
f 69//36 57//36 93//36 95//36
f 65//37 66//37 131//37 132//37
f 72//38 62//38 111//38 112//38
f 73//15 74//15 84//15 83//15 82//15 81//15 80//15 79//15 78//15 77//15 76//15 75//15
f 61//39 73//39 188//39 186//39
f 70//40 69//40 81//40 82//40
f 67//41 66//41 78//41 79//41
f 64//42 63//42 75//42 76//42
f 71//43 70//43 82//43 83//43
f 68//44 67//44 79//44 80//44
f 65//45 64//45 76//45 77//45
f 84//46 72//46 189//46 191//46
f 61//47 62//47 74//47 73//47
f 68//48 80//48 196//48 194//48
f 66//49 65//49 182//49 181//49
f 88//6 87//6 135//6 136//6
f 67//50 55//50 85//50 87//50
f 66//51 67//51 87//51 88//51
f 54//52 66//52 88//52 86//52
f 108//10 107//10 155//10 156//10
f 55//53 67//53 92//53 90//53
f 56//15 55//15 90//15 89//15
f 68//54 56//54 89//54 91//54
f 128//4 127//4 175//4 176//4
f 56//55 68//55 96//55 94//55
f 68//56 69//56 95//56 96//56
f 57//15 56//15 94//15 93//15
f 99//57 97//57 145//57 147//57
f 69//58 70//58 99//58 100//58
f 58//15 57//15 98//15 97//15
f 70//59 58//59 97//59 99//59
f 85//13 86//13 134//13 133//13
f 60//15 59//15 102//15 101//15
f 59//60 71//60 104//60 102//60
f 72//61 60//61 101//61 103//61
f 119//62 117//62 165//62 167//62
f 58//63 70//63 108//63 106//63
f 70//64 71//64 107//64 108//64
f 59//15 58//15 106//15 105//15
f 105//4 106//4 154//4 153//4
f 60//65 72//65 112//65 110//65
f 50//15 60//15 110//15 109//15
f 62//66 50//66 109//66 111//66
f 125//10 126//10 174//10 173//10
f 49//15 50//15 114//15 113//15
f 61//67 49//67 113//67 115//67
f 50//68 62//68 116//68 114//68
f 98//69 100//69 148//69 146//69
f 61//70 63//70 119//70 120//70
f 49//71 61//71 120//71 118//71
f 51//15 49//15 118//15 117//15
f 118//72 120//72 168//72 166//72
f 51//73 63//73 124//73 122//73
f 52//15 51//15 122//15 121//15
f 64//74 52//74 121//74 123//74
f 100//9 99//9 147//9 148//9
f 64//75 65//75 127//75 128//75
f 53//15 52//15 126//15 125//15
f 65//76 53//76 125//76 127//76
f 120//2 119//2 167//2 168//2
f 54//15 53//15 130//15 129//15
f 66//77 54//77 129//77 131//77
f 53//78 65//78 132//78 130//78
f 126//91 128//91 176//91 174//91
f 106//92 108//92 156//92 154//92
f 86//93 88//93 136//93 134//93
f 113//7 114//7 162//7 161//7
f 127//94 125//94 173//94 175//94
f 93//2 94//2 142//2 141//2
f 107//95 105//95 153//95 155//95
f 87//96 85//96 133//96 135//96
f 116//1 115//1 163//1 164//1
f 96//8 95//8 143//8 144//8
f 115//97 113//97 161//97 163//97
f 95//98 93//98 141//98 143//98
f 121//9 122//9 170//9 169//9
f 101//5 102//5 150//5 149//5
f 114//99 116//99 164//99 162//99
f 94//100 96//100 144//100 142//100
f 124//3 123//3 171//3 172//3
f 104//12 103//12 151//12 152//12
f 122//101 124//101 172//101 170//101
f 102//102 104//102 152//102 150//102
f 129//12 130//12 178//12 177//12
f 109//6 110//6 158//6 157//6
f 123//103 121//103 169//103 171//103
f 89//1 90//1 138//1 137//1
f 103//104 101//104 149//104 151//104
f 132//5 131//5 179//5 180//5
f 112//13 111//13 159//13 160//13
f 92//7 91//7 139//7 140//7
f 131//105 129//105 177//105 179//105
f 110//106 112//106 160//106 158//106
f 90//107 92//107 140//107 138//107
f 117//8 118//8 166//8 165//8
f 130//108 132//108 180//108 178//108
f 97//3 98//3 146//3 145//3
f 111//109 109//109 157//109 159//109
f 91//110 89//110 137//110 139//110
f 181//12 182//12 198//12 197//12
f 78//111 66//111 181//111 183//111
f 65//112 77//112 184//112 182//112
f 77//113 78//113 183//113 184//113
f 194//114 196//114 212//114 210//114
f 73//115 75//115 187//115 188//115
f 63//116 61//116 186//116 185//116
f 75//117 63//117 185//117 187//117
f 190//118 192//118 208//118 206//118
f 83//119 84//119 191//119 192//119
f 71//120 83//120 192//120 190//120
f 72//121 71//121 190//121 189//121
f 195//122 193//122 209//122 211//122
f 80//123 81//123 195//123 196//123
f 69//124 68//124 194//124 193//124
f 81//125 69//125 193//125 195//125
f 185//8 186//8 202//8 201//8
f 184//5 183//5 199//5 200//5
f 189//5 190//5 206//5 205//5
f 188//2 187//2 203//2 204//2
f 193//2 194//2 210//2 209//2
f 183//130 181//130 197//130 199//130
f 192//12 191//12 207//12 208//12
f 186//131 188//131 204//131 202//131
f 196//8 195//8 211//8 212//8
f 182//132 184//132 200//132 198//132
f 191//133 189//133 205//133 207//133
f 187//134 185//134 201//134 203//134
